<?xml version="1.0" standalone="no"?><!DOCTYPE svg PUBLIC "-//W3C//DTD SVG 1.1//EN" "http://www.w3.org/Graphics/SVG/1.1/DTD/svg11.dtd"><svg class="icon" width="200px" height="200.00px" viewBox="0 0 1024 1024" version="1.1" xmlns="http://www.w3.org/2000/svg"><path d="M881.4 46.8H141.6C96.7 46.8 60 83.5 60 128.4v739.8c0 44.9 36.7 81.6 81.6 81.6h739.8c44.9 0 81.6-36.7 81.6-81.6V128.4c0-44.9-36.8-81.6-81.6-81.6z" fill="#60A44E" /><path d="M511.5 861c-49 0-96.5-9.6-141.2-28.5-43.2-18.3-82-44.4-115.3-77.7-33.3-33.3-59.5-72.1-77.7-115.3-18.9-44.7-28.5-92.2-28.5-141.2s9.6-96.5 28.5-141.2c18.3-43.2 44.4-82 77.7-115.3 33.3-33.3 72.1-59.5 115.3-77.7 44.7-18.9 92.2-28.5 141.2-28.5s96.5 9.6 141.2 28.5c43.2 18.3 82 44.4 115.3 77.7 33.3 33.3 59.5 72.1 77.7 115.3 18.9 44.7 28.5 92.2 28.5 141.2s-9.6 96.5-28.5 141.2c-18.3 43.2-44.4 82-77.7 115.3-33.3 33.3-72.1 59.5-115.3 77.7-44.8 18.9-92.3 28.5-141.2 28.5z m0-705.7c-189.1 0-343 153.8-343 343s153.8 343 343 343 343-153.8 343-343-153.9-343-343-343z" fill="#FFFFFF" /><path d="M471.8 465.4h-111c-11.4 0-20.7-9.3-20.7-20.7v-87.4c0-11.4 9.3-20.7 20.7-20.7h111c11.4 0 20.7 9.3 20.7 20.7v87.4c0 11.4-9.3 20.7-20.7 20.7z m-111-115.7c-4.2 0-7.5 3.4-7.5 7.5v87.4c0 4.2 3.4 7.5 7.5 7.5h111c4.2 0 7.5-3.4 7.5-7.5v-87.4c0-4.2-3.4-7.5-7.5-7.5h-111z" fill="#FFFFFF" /><path d="M369.9 594.4c-5.3 0-10.6-2-14.6-6l-61.8-61.8c-3.9-3.9-6-9.1-6-14.6s2.1-10.7 6-14.6l78.5-78.5c3.9-3.9 9.1-6 14.6-6s10.7 2.1 14.6 6l61.8 61.8c3.9 3.9 6 9.1 6 14.6s-2.1 10.7-6 14.6l-78.5 78.5c-4 4-9.3 6-14.6 6z m16.6-168.5c-1.9 0-3.9 0.7-5.3 2.2l-78.5 78.5c-2.9 2.9-2.9 7.7 0 10.7l61.8 61.8c2.9 2.9 7.7 2.9 10.7 0l78.5-78.5c2.9-2.9 2.9-7.7 0-10.7l-61.8-61.8c-1.5-1.5-3.4-2.2-5.4-2.2z" fill="#FFFFFF" /><path d="M467.5 679.2h-87.4c-11.4 0-20.7-9.3-20.7-20.7v-111c0-11.4 9.3-20.7 20.7-20.7h87.4c11.4 0 20.7 9.3 20.7 20.7v111c0 11.5-9.3 20.7-20.7 20.7zM380.1 540c-4.2 0-7.5 3.4-7.5 7.5v111c0 4.2 3.4 7.5 7.5 7.5h87.4c4.2 0 7.5-3.4 7.5-7.5v-111c0-4.2-3.4-7.5-7.5-7.5h-87.4z" fill="#FFFFFF" /><path d="M534.7 732c-5.5 0-10.7-2.1-14.6-6l-78.5-78.5c-8.1-8.1-8.1-21.2 0-29.2l61.8-61.8c3.9-3.9 9.1-6 14.6-6s10.7 2.1 14.6 6l78.5 78.5c3.9 3.9 6 9.1 6 14.6s-2.1 10.7-6 14.6L549.3 726c-3.9 3.9-9.1 6-14.6 6zM518 563.5c-1.9 0-3.9 0.7-5.3 2.2l-61.8 61.8c-2.9 2.9-2.9 7.7 0 10.7l78.5 78.5c1.4 1.4 3.3 2.2 5.3 2.2s3.9-0.8 5.3-2.2l61.8-61.8c1.4-1.4 2.2-3.3 2.2-5.3s-0.8-3.9-2.2-5.3l-78.5-78.5c-1.4-1.6-3.3-2.3-5.3-2.3z" fill="#FFFFFF" /><path d="M681.3 660h-111c-11.4 0-20.7-9.3-20.7-20.7v-87.4c0-11.4 9.3-20.7 20.7-20.7h111c11.4 0 20.7 9.3 20.7 20.7v87.4c0 11.4-9.3 20.7-20.7 20.7zM570.4 544.3c-4.2 0-7.5 3.4-7.5 7.5v87.4c0 4.2 3.4 7.5 7.5 7.5h111c4.2 0 7.5-3.4 7.5-7.5v-87.4c0-4.2-3.4-7.5-7.5-7.5h-111z" fill="#FFFFFF" /><path d="M655.6 583.8c-5.3 0-10.6-2-14.6-6L579.2 516c-3.9-3.9-6-9.1-6-14.6s2.1-10.7 6-14.6l78.5-78.5c3.9-3.9 9.1-6 14.6-6s10.7 2.1 14.6 6l61.8 61.8c8.1 8.1 8.1 21.2 0 29.2l-78.5 78.5c-4 4-9.3 6-14.6 6z m16.7-168.5c-1.9 0-3.9 0.7-5.3 2.2L588.5 496c-2.9 2.9-2.9 7.7 0 10.7l61.8 61.8c2.9 2.9 7.7 2.9 10.7 0l78.5-78.5c2.9-2.9 2.9-7.7 0-10.7l-61.8-61.8c-1.5-1.4-3.5-2.2-5.4-2.2z" fill="#FFFFFF" /><path d="M662.1 469.7h-87.4c-11.4 0-20.7-9.3-20.7-20.7V338c0-11.4 9.3-20.7 20.7-20.7h87.4c11.4 0 20.7 9.3 20.7 20.7v111c0 11.4-9.3 20.7-20.7 20.7z m-87.4-139.2c-4.2 0-7.5 3.4-7.5 7.5v111c0 4.2 3.4 7.5 7.5 7.5h87.4c4.2 0 7.5-3.4 7.5-7.5V338c0-4.2-3.4-7.5-7.5-7.5h-87.4z" fill="#FFFFFF" /><path d="M524.1 446.2c-5.5 0-10.7-2.1-14.6-6L431 361.7c-3.9-3.9-6-9.1-6-14.6s2.1-10.7 6-14.6l61.8-61.8c3.9-3.9 9.1-6 14.6-6s10.7 2.1 14.6 6l78.5 78.5c3.9 3.9 6 9.1 6 14.6s-2.1 10.7-6 14.6l-61.8 61.8c-3.8 3.9-9 6-14.6 6z m-16.6-168.5c-1.9 0-3.9 0.7-5.3 2.2l-61.8 61.8c-2.9 2.9-2.9 7.7 0 10.7l78.5 78.5c1.4 1.4 3.3 2.2 5.3 2.2s3.9-0.8 5.3-2.2l61.8-61.8c2.9-2.9 2.9-7.7 0-10.7l-78.5-78.5c-1.4-1.4-3.4-2.2-5.3-2.2zM521.1 540c-23 0-41.7-18.7-41.7-41.7 0-23 18.7-41.7 41.7-41.7 23 0 41.7 18.7 41.7 41.7 0 23-18.7 41.7-41.7 41.7z m0-70.3c-15.8 0-28.6 12.8-28.6 28.6s12.8 28.6 28.6 28.6 28.6-12.8 28.6-28.6-12.8-28.6-28.6-28.6z" fill="#FFFFFF" /></svg>