<?xml version="1.0" standalone="no"?><!DOCTYPE svg PUBLIC "-//W3C//DTD SVG 1.1//EN" "http://www.w3.org/Graphics/SVG/1.1/DTD/svg11.dtd"><svg t="1652105860539" class="icon" viewBox="0 0 1024 1024" version="1.1" xmlns="http://www.w3.org/2000/svg" p-id="1417" xmlns:xlink="http://www.w3.org/1999/xlink" width="200" height="200"><defs><style type="text/css">@font-face { font-family: feedback-iconfont; src: url("//at.alicdn.com/t/font_1031158_u69w8yhxdu.woff2?t=1630033759944") format("woff2"), url("//at.alicdn.com/t/font_1031158_u69w8yhxdu.woff?t=1630033759944") format("woff"), url("//at.alicdn.com/t/font_1031158_u69w8yhxdu.ttf?t=1630033759944") format("truetype"); }
</style></defs><path d="M512.003 64.36c-247.229 0-447.644 200.423-447.644 447.647S264.773 959.64 512.003 959.64c247.221 0 447.639-200.409 447.639-447.633S759.224 64.36 512.003 64.36z m153.334 483.134c-30.816 76.806-92.451 135.595-185.378 175.419l-22.755-29.394c80.599-33.188 137.016-79.652 168.31-140.338H332.51v-31.763h332.827v26.076z m-224.73-111.415l18.489-27.026c39.828 17.542 76.334 38.878 109.519 64.479l-18.017 28.447c-36.032-27.972-72.538-49.78-109.991-65.9z m261.711 41.246c-78.703-39.828-146.028-92.454-201.498-156.933-51.205 60.688-118.055 112.84-201.498 157.405l-18.017-32.241c82.968-41.724 152.19-94.351 207.188-157.405h24.654c59.739 66.378 128.486 119.005 207.188 157.405l-18.017 31.769z" p-id="1418"></path></svg>