<?xml version="1.0" standalone="no"?><!DOCTYPE svg PUBLIC "-//W3C//DTD SVG 1.1//EN" "http://www.w3.org/Graphics/SVG/1.1/DTD/svg11.dtd"><svg t="1654597109796" class="icon" viewBox="0 0 1024 1024" version="1.1" xmlns="http://www.w3.org/2000/svg" p-id="8435" xmlns:xlink="http://www.w3.org/1999/xlink" width="200" height="200"><defs><style type="text/css">@font-face { font-family: feedback-iconfont; src: url("//at.alicdn.com/t/font_1031158_u69w8yhxdu.woff2?t=1630033759944") format("woff2"), url("//at.alicdn.com/t/font_1031158_u69w8yhxdu.woff?t=1630033759944") format("woff"), url("//at.alicdn.com/t/font_1031158_u69w8yhxdu.ttf?t=1630033759944") format("truetype"); }
</style></defs><path d="M580.82424219 512.55757531L944.751515 148.64242438c18.3757575-18.3757575 18.3757575-48.65454562 0-67.03030313l-1.98787875-1.98787875c-18.3757575-18.3757575-48.65454562-18.3757575-67.03030313 0L511.80606031 444.048485 147.89090937 79.6242425c-18.3757575-18.3757575-48.65454562-18.3757575-67.03030312 0l-1.98787875 1.98787875c-18.86060625 18.3757575-18.86060625 48.65454562 0 67.03030313l363.92727281 363.92727281L78.8727275 876.48484812c-18.36363656 18.3757575-18.36363656 48.65454562 0 67.03030313l1.98787875 1.98787875c18.3757575 18.3757575 48.65454562 18.3757575 67.03030313 0L511.80606031 581.57575719l363.92727281 363.91515187c18.3757575 18.3757575 48.65454562 18.3757575 67.03030313 0l1.98787875-1.98787875c18.3757575-18.3757575 18.3757575-48.65454562 0-67.03030312L580.82424219 512.55757531z m0 0" p-id="8436"></path></svg>